<?xml version="1.0" encoding="utf-8"?>
<!-- Generator: Adobe Illustrator 27.0.0, SVG Export Plug-In . SVG Version: 6.00 Build 0)  -->
<svg version="1.1" id="Layer_2_00000132805999743549754630000008042038604295190714_"
	 xmlns="http://www.w3.org/2000/svg" xmlns:xlink="http://www.w3.org/1999/xlink" x="0px" y="0px" viewBox="0 0 138 29.7"
	 style="enable-background:new 0 0 138 29.7;" xml:space="preserve">
<style type="text/css">
	.st0{enable-background:new    ;}
	.st1{fill:#2A32A1;}
	.st2{fill:#FFCC00;}
</style>
<g id="Group_62" transform="translate(-1280.292 -8.567)">
	<g id="Group_62-2" transform="translate(110.83 342.061)">
		<g id="Group_40" transform="translate(1169.462 -331.426)">
			<g class="st0">
				<path d="M6.2,17L1.8,6l0,0c0,0.3,0,0.7,0.1,1.1c0,0.4,0,0.8,0,1.3V17h-1V4.9h1.5l4.2,10.6h0.1l4.2-10.6h1.5V17h-1V8.2
					c0-0.4,0-0.8,0-1.2s0-0.8,0.1-1.1h-0.1L7,17H6.2z"/>
				<path d="M18.7,7.8c1,0,1.8,0.2,2.3,0.7s0.7,1.3,0.7,2.4V17H21l-0.2-1.5l0,0c-0.3,0.5-0.7,0.9-1.2,1.2c-0.5,0.3-1.1,0.5-2,0.5
					s-1.5-0.2-2-0.6s-0.8-1.1-0.8-1.9c0-0.9,0.4-1.6,1.1-2.1c0.7-0.5,1.8-0.7,3.2-0.8l1.6-0.1v-0.6c0-0.9-0.2-1.5-0.5-1.9
					s-0.9-0.6-1.6-0.6c-0.5,0-0.9,0.1-1.3,0.2c-0.4,0.1-0.9,0.3-1.3,0.5l-0.3-0.8c0.4-0.2,0.9-0.4,1.4-0.5
					C17.7,7.9,18.2,7.8,18.7,7.8z M20.8,12.5l-1.5,0.1c-1.2,0-2,0.2-2.6,0.6s-0.9,0.9-0.9,1.6c0,0.6,0.2,1,0.5,1.3
					c0.4,0.3,0.8,0.4,1.4,0.4c0.9,0,1.7-0.3,2.2-0.8c0.5-0.5,0.8-1.3,0.8-2.2v-1H20.8z"/>
				<path d="M27.9,17.2c-1.2,0-2.1-0.4-2.8-1.2c-0.7-0.8-1-1.9-1-3.4c0-1.6,0.3-2.8,1-3.6s1.6-1.2,2.8-1.2c0.8,0,1.4,0.2,1.9,0.5
					c0.5,0.3,0.8,0.7,1.1,1.2H31c0-0.3,0-0.6,0-0.9c0-0.3,0-0.6,0-0.9V4.1h1V17h-0.8L31,15.5h-0.1c-0.2,0.5-0.6,0.9-1.1,1.2
					S28.7,17.2,27.9,17.2z M28,16.4c1,0,1.8-0.3,2.2-1c0.4-0.7,0.7-1.5,0.7-2.7v-0.2c0-1.2-0.2-2.2-0.7-2.9s-1.2-1-2.2-1
					s-1.7,0.3-2.2,1s-0.7,1.7-0.7,2.9s0.2,2.2,0.7,2.8S27.1,16.4,28,16.4z"/>
				<path d="M38.3,7.8c0.8,0,1.4,0.2,1.9,0.5c0.5,0.4,0.9,0.8,1.2,1.5s0.4,1.3,0.4,2.1v0.7h-6.5c0,1.2,0.3,2.1,0.8,2.7
					c0.6,0.6,1.4,1,2.4,1c0.6,0,1.1,0,1.5-0.1s0.9-0.2,1.4-0.5v0.9c-0.5,0.2-0.9,0.4-1.3,0.4c-0.4,0.1-1,0.1-1.5,0.1
					c-1.3,0-2.4-0.4-3.1-1.2c-0.7-0.8-1.1-2-1.1-3.4c0-0.9,0.2-1.7,0.5-2.5c0.3-0.7,0.8-1.3,1.4-1.7C36.7,8,37.4,7.8,38.3,7.8z
					 M38.3,8.6c-0.8,0-1.5,0.3-2,0.8c-0.5,0.6-0.8,1.3-0.9,2.4h5.4c0-1-0.2-1.7-0.6-2.3C39.8,8.9,39.1,8.6,38.3,8.6z"/>
				<path d="M49.1,4.6c0.5,0,0.7,0.2,0.7,0.7S49.6,6,49.1,6c-0.4,0-0.6-0.2-0.6-0.7C48.5,4.9,48.7,4.6,49.1,4.6z M49.6,8v9h-1V8
					H49.6z"/>
				<path d="M56.6,7.8c1,0,1.8,0.3,2.4,0.8c0.5,0.5,0.8,1.4,0.8,2.5V17h-1v-5.8c0-0.9-0.2-1.5-0.6-1.9s-1-0.6-1.7-0.6
					c-2,0-3,1.1-3,3.4V17h-1V8h0.8l0.1,1.6h0.1c0.2-0.5,0.6-0.9,1.1-1.2C55.2,8,55.9,7.8,56.6,7.8z"/>
			</g>
			<g class="st0">
				<path class="st1" d="M74.2,17h-7V4.9h7V7h-4.4v2.7h4.1v2.1h-4.1v3.1h4.4V17z"/>
				<path class="st1" d="M85,7.8V17h-1.9l-0.3-1.2h-0.1c-0.3,0.5-0.7,0.8-1.2,1c-0.5,0.2-1.1,0.3-1.6,0.3c-1,0-1.8-0.3-2.4-0.8
					c-0.6-0.5-0.9-1.4-0.9-2.6V7.8H79v5.4c0,0.7,0.1,1.2,0.4,1.5c0.2,0.3,0.6,0.5,1.1,0.5c0.8,0,1.3-0.3,1.6-0.8
					c0.3-0.5,0.4-1.3,0.4-2.3V7.8H85z"/>
				<path class="st1" d="M92.8,7.6c0.1,0,0.3,0,0.4,0c0.2,0,0.3,0,0.4,0.1L93.5,10c-0.1,0-0.2,0-0.4-0.1c-0.1,0-0.3,0-0.4,0
					c-0.4,0-0.8,0.1-1.2,0.2s-0.7,0.4-1,0.7c-0.2,0.3-0.4,0.8-0.4,1.4V17h-2.5V7.8h1.9L90,9.3h0.1c0.3-0.5,0.6-0.9,1.1-1.2
					C91.7,7.8,92.2,7.6,92.8,7.6z"/>
				<path class="st1" d="M103.5,12.4c0,1.5-0.4,2.7-1.2,3.6c-0.8,0.8-1.9,1.3-3.3,1.3c-0.9,0-1.6-0.2-2.3-0.6
					c-0.7-0.4-1.2-0.9-1.6-1.6s-0.6-1.6-0.6-2.6c0-1.5,0.4-2.7,1.2-3.6C96.5,8,97.6,7.6,99,7.6c0.9,0,1.6,0.2,2.3,0.6
					c0.7,0.4,1.2,0.9,1.6,1.6S103.5,11.4,103.5,12.4z M97.1,12.4c0,0.9,0.1,1.6,0.4,2.1s0.8,0.7,1.5,0.7s1.2-0.2,1.5-0.7
					s0.5-1.2,0.5-2.1s-0.2-1.6-0.5-2.1S99.7,9.6,99,9.6s-1.2,0.2-1.5,0.7C97.2,10.8,97.1,11.5,97.1,12.4z"/>
				<path class="st1" d="M110.7,7.6c1,0,1.9,0.4,2.5,1.2s1,2,1,3.6s-0.3,2.8-1,3.6s-1.5,1.2-2.6,1.2c-0.7,0-1.2-0.1-1.6-0.4
					c-0.4-0.2-0.7-0.5-1-0.8l0,0c0.1,0.5,0.1,0.9,0.1,1.4v3.7h-2.5V7.8h2.1L108,9h0.1c0.2-0.4,0.6-0.7,1-1
					C109.5,7.7,110.1,7.6,110.7,7.6z M109.9,9.6c-0.7,0-1.1,0.2-1.4,0.6c-0.3,0.4-0.4,1-0.4,1.9v0.3c0,0.9,0.1,1.6,0.4,2.1
					s0.8,0.7,1.5,0.7c0.6,0,1-0.2,1.3-0.7s0.4-1.2,0.4-2.1C111.7,10.5,111.1,9.6,109.9,9.6z"/>
				<path class="st1" d="M120.1,7.6c1.3,0,2.3,0.4,3,1.1s1.1,1.8,1.1,3.1V13h-6c0,0.7,0.2,1.3,0.6,1.7s1,0.6,1.7,0.6
					c0.6,0,1.1-0.1,1.6-0.2c0.5-0.1,1-0.3,1.5-0.6v2c-0.5,0.2-0.9,0.4-1.4,0.5s-1.1,0.2-1.8,0.2c-0.9,0-1.8-0.2-2.5-0.5
					s-1.3-0.9-1.7-1.6c-0.4-0.7-0.6-1.6-0.6-2.7s0.2-2,0.6-2.7s0.9-1.3,1.5-1.6C118.5,7.8,119.3,7.6,120.1,7.6z M120.2,9.4
					c-0.5,0-0.9,0.2-1.2,0.5s-0.5,0.8-0.6,1.5h3.6c0-0.6-0.2-1-0.5-1.4S120.8,9.4,120.2,9.4z"/>
			</g>
		</g>
	</g>
	<g id="Group_63" transform="matrix(0.829, 0.559, -0.559, 0.829, 1397.325, -80.095)">
		<g id="Path_63">
			<path class="st2" d="M63.1,67.4l0.5,1.6h1.6l-1.3,1l0.5,1.6l-1.3-1l-1.3,1l0.5-1.6L61,69h1.6L63.1,67.4z"/>
		</g>
		<g id="Path_64">
			<path class="st2" d="M63.1,92.5l0.5,1.6h1.6l-1.3,1l0.5,1.6l-1.3-1l-1.3,1l0.5-1.6l-1.3-1h1.6L63.1,92.5z"/>
		</g>
		<g id="Path_65">
			<path class="st2" d="M75.7,80l0.5,1.6h1.6l-1.3,1l0.5,1.6l-1.3-1l-1.3,1l0.5-1.6l-1.3-1h1.6L75.7,80z"/>
		</g>
		<g id="Path_67">
			<path class="st2" d="M52.2,73.6l0.5,1.6h1.6l-1.3,1l0.5,1.6l-1.3-1l-1.3,1l0.5-1.6l-1.3-1h1.6L52.2,73.6z"/>
		</g>
		<g id="Path_68">
			<path class="st2" d="M56.7,69l0.5,1.6h1.6l-1.3,1l0.5,1.6l-1.3-1l-1.3,1l0.5-1.6l-1.3-1h1.6L56.7,69z"/>
		</g>
		<g id="Path_69">
			<path class="st2" d="M73.8,73.6l0.5,1.6H76l-1.3,1l0.5,1.6l-1.3-1l-1.3,1l0.5-1.6l-1.3-1h1.6L73.8,73.6z"/>
		</g>
		<g id="Path_70">
			<path class="st2" d="M69.9,69l0.5,1.6H72l-1.3,1l0.5,1.6l-1.3-1l-1.3,1l0.5-1.6l-1.3-1h1.6L69.9,69z"/>
		</g>
		<g id="Path_73">
			<path class="st2" d="M73.8,86.2l0.5,1.6H76l-1.3,1l0.5,1.6l-1.3-1l-1.3,1l0.5-1.6l-1.3-1h1.6L73.8,86.2z"/>
		</g>
		<g id="Path_74">
			<path class="st2" d="M69.3,90.7l0.5,1.6h1.6l-1.3,1l0.5,1.6l-1.3-1l-1.3,1l0.5-1.6l-1.3-1h1.6L69.3,90.7z"/>
		</g>
	</g>
</g>
</svg>
