<?xml version="1.0" ?><svg xmlns="http://www.w3.org/2000/svg" viewBox="0 0 24 24"><defs><style>.a{stroke-width:1.2;stroke:#E54C51;;fill:none;;stroke-linecap:round;stroke-linejoin:round;;}</style></defs><path class="a" d="M14.137,17.7l.008,0a3.226,3.226,0,0,0,4.014-.441l.452-.451a1.076,1.076,0,0,0,0-1.521l-1.9-1.9a1.076,1.076,0,0,0-1.521,0h0a1.077,1.077,0,0,1-1.522,0l-3.042-3.043a1.076,1.076,0,0,1,0-1.521h0a1.076,1.076,0,0,0,0-1.521l-1.9-1.9A1.076,1.076,0,0,0,7.2,5.4l-.452.451a3.229,3.229,0,0,0-.44,4.015l0,.007A29.14,29.14,0,0,0,14.137,17.7Z"/><path class="a" d="M21,18.764a11.251,11.251,0,1,0-9,4.5c4.418,0,6.446-2.136,5.215-5.344"/></svg>