<svg id="Regular" xmlns="http://www.w3.org/2000/svg" viewBox="0 0 24 24"><defs><style>.cls-1{fill:none;stroke:#e54c51;stroke-linecap:round;stroke-linejoin:round;stroke-width:1.2px;}</style></defs><path class="cls-1" d="M21.71,6.18a5.86,5.86,0,0,1-3.6-1.24A5.9,5.9,0,0,1,16,1.74L15.84,1H11.92V16.62a3.26,3.26,0,0,1-.55,1.81,3.22,3.22,0,0,1-1.46,1.2,3.24,3.24,0,0,1-3.56-.71,3.14,3.14,0,0,1-.89-1.67,3.27,3.27,0,0,1,3.2-3.9,4.62,4.62,0,0,1,.65.07V10.16a4.78,4.78,0,0,0-.65-.07,6.52,6.52,0,1,0,6.52,6.53V6.83a8.91,8.91,0,0,0,3,2.16,9,9,0,0,0,3.57.78Z"/></svg>